# Blender v3.6.0 OBJ File: 'balder3d_edit.blend'
# www.blender.org
mtllib center.mtl
o Plane.002_Plane.008
v -10.326563 -4.669585 4.669585
v -4.669585 -4.669585 10.326563
v -4.669585 -10.326563 4.669585
v 4.669585 -4.669585 10.326563
v 10.326563 -4.669585 4.669585
v 4.669585 -10.326563 4.669585
v -10.326563 -4.669585 -4.669585
v -4.669585 -10.326563 -4.669585
v -4.669585 -4.669585 -10.326563
v 10.326563 -4.669585 -4.669585
v 4.669585 -4.669585 -10.326563
v 4.669585 -10.326563 -4.669585
v -10.326563 4.669585 4.669585
v -4.669585 10.326563 4.669585
v -4.669585 4.669585 10.326563
v 4.669585 4.669585 10.326563
v 4.669585 10.326563 4.669585
v 10.326563 4.669585 4.669585
v -10.326563 4.669585 -4.669585
v -4.669585 4.669585 -10.326563
v -4.669585 10.326563 -4.669585
v 10.326563 4.669585 -4.669585
v 4.669585 10.326563 -4.669585
v 4.669585 4.669585 -10.326563
vt 0.273949 0.000100
vt 0.726051 0.000100
vt 0.726051 0.000100
vt 0.273949 0.000100
vt 0.273949 0.273949
vt 0.726051 0.273949
vt 0.726051 0.726050
vt 0.273949 0.726051
vt 0.999900 0.273949
vt 0.999900 0.726051
vt 0.999900 0.726051
vt 0.999900 0.273949
vt 0.726051 0.999900
vt 0.273949 0.999900
vt 0.273949 0.999900
vt 0.726051 0.999900
vt 0.273949 0.273949
vt 0.273949 0.726051
vt 0.726050 0.726051
vt 0.726051 0.273949
vt 0.000100 0.273949
vt 0.000100 0.726051
vt 0.000100 0.273949
vt 0.000100 0.726051
vn 0.0000 0.0000 1.0000
vn 0.0000 1.0000 0.0000
vn 1.0000 0.0000 0.0000
vn -0.0000 0.0000 -1.0000
vn 0.0000 -1.0000 -0.0000
vn -0.5774 -0.5774 0.5774
vn 0.5774 -0.5774 0.5774
vn -0.5774 -0.5774 -0.5774
vn 0.5774 -0.5774 -0.5774
vn -0.5774 0.5774 0.5774
vn 0.5774 0.5774 0.5774
vn -0.5774 0.5774 -0.5774
vn 0.5774 0.5774 -0.5774
vn -1.0000 -0.0000 0.0000
vn -0.7071 -0.7071 0.0000
vn -0.0000 -0.7071 0.7071
vn 0.7071 -0.7071 0.0000
vn 0.0000 -0.7071 -0.7071
vn -0.7071 0.7071 -0.0000
vn 0.0000 0.7071 0.7071
vn 0.7071 0.7071 0.0000
vn 0.0000 0.7071 -0.7071
vn -0.7071 0.0000 -0.7071
vn 0.7071 0.0000 -0.7071
vn 0.7071 -0.0000 0.7071
vn -0.7071 0.0000 0.7071
usemtl level_1_center
s off
f 2/1/1 4/2/1 16/3/1 15/4/1
f 14/5/2 17/6/2 23/7/2 21/8/2
f 5/9/3 10/10/3 22/11/3 18/12/3
f 11/13/4 9/14/4 20/15/4 24/16/4
f 3/17/5 8/18/5 12/19/5 6/20/5
f 1/21/6 3/17/6 2/1/6
f 4/2/7 6/20/7 5/9/7
f 7/22/8 9/14/8 8/18/8
f 10/10/9 12/19/9 11/13/9
f 13/23/10 15/4/10 14/5/10
f 16/3/11 18/12/11 17/6/11
f 19/24/12 21/8/12 20/15/12
f 22/11/13 24/16/13 23/7/13
f 7/22/14 1/21/14 13/23/14 19/24/14
usemtl level_1.001
f 7/22/15 8/18/15 3/17/15 1/21/15
f 2/1/16 3/17/16 6/20/16 4/2/16
f 5/9/17 6/20/17 12/19/17 10/10/17
f 11/13/18 12/19/18 8/18/18 9/14/18
f 21/8/19 19/24/19 13/23/19 14/5/19
f 14/5/20 15/4/20 16/3/20 17/6/20
f 17/6/21 18/12/21 22/11/21 23/7/21
f 23/7/22 24/16/22 20/15/22 21/8/22
f 9/14/23 7/22/23 19/24/23 20/15/23
f 24/16/24 22/11/24 10/10/24 11/13/24
f 4/2/25 5/9/25 18/12/25 16/3/25
f 15/4/26 13/23/26 1/21/26 2/1/26
